<svg width="15" height="24" viewBox="0 0 15 24" fill="none" xmlns="http://www.w3.org/2000/svg">
<path d="M10.4965 1.28236L1.27369 12.3902C0.987399 12.735 1.22523 13.267 1.66568 13.267H6.16199C6.49039 13.267 6.73517 13.579 6.66637 13.9098L4.8816 22.4906C4.82388 22.7681 5.17194 22.9331 5.33891 22.7074L13.7448 11.3455C14.0035 10.9957 13.7614 10.492 13.3345 10.492H9.06529C8.72079 10.492 8.47311 10.1508 8.57052 9.81036L10.9399 1.53019C11.0186 1.25531 10.6773 1.06458 10.4965 1.28236Z" fill="#FFC107"/>
<path fill-rule="evenodd" clip-rule="evenodd" d="M6.66637 13.9098C6.73517 13.579 6.49039 13.267 6.16199 13.267H1.66568C1.22523 13.267 0.987399 12.735 1.27369 12.3902L10.4965 1.28236C10.6773 1.06458 11.0186 1.25531 10.9399 1.53019L10.907 1.64518L8.57052 9.81036C8.47311 10.1508 8.72079 10.492 9.06529 10.492H13.3345C13.7614 10.492 14.0035 10.9957 13.7448 11.3455L5.33891 22.7074C5.17194 22.9331 4.82388 22.7681 4.8816 22.4906L6.66637 13.9098ZM11.3663 2.05272L11.3671 2.05182C11.3668 2.05212 11.3666 2.05242 11.3663 2.05272ZM0.403151 11.6208L9.62598 0.512901C10.6052 -0.666418 12.4705 0.358051 12.0393 1.86509L9.90912 9.30929H13.3345C14.7071 9.30929 15.4926 10.9322 14.6559 12.0631L6.25009 23.425C5.34518 24.6481 3.44463 23.7626 3.76081 22.2425L5.38165 14.4497H1.66568C0.249565 14.4497 -0.522494 12.7356 0.403151 11.6208Z" fill="#212121"/>
</svg>
