<svg width="2868" height="512" viewBox="0 0 2868 512" fill="none" xmlns="http://www.w3.org/2000/svg">
<path d="M2828.97 120.405C2840.58 120.405 2849.62 122.624 2856.11 127.061C2858.5 129.109 2859.18 131.669 2858.16 134.741L2838.19 205.909C2837.16 210.005 2834.6 211.2 2830.51 209.493C2825.05 208.128 2819.41 207.445 2813.61 207.445C2808.15 207.445 2803.88 207.787 2800.81 208.469C2790.57 209.835 2781.36 213.931 2773.16 220.757C2765.31 227.584 2760.71 236.629 2759.34 247.893L2742.96 382.549C2742.61 384.256 2741.76 385.792 2740.4 387.157C2739.37 388.181 2738.01 388.693 2736.3 388.693H2665.64C2663.94 388.693 2662.57 388.181 2661.55 387.157C2660.52 385.792 2660.18 384.256 2660.52 382.549L2691.24 130.133C2691.59 128.427 2692.27 127.061 2693.29 126.037C2694.66 124.672 2696.19 123.989 2697.9 123.989H2768.56C2770.26 123.989 2771.63 124.672 2772.65 126.037C2773.68 127.061 2774.02 128.427 2773.68 130.133L2771.63 146.517C2771.63 147.541 2771.97 148.224 2772.65 148.565C2773.33 148.907 2773.85 148.565 2774.19 147.541C2789.55 129.451 2807.81 120.405 2828.97 120.405Z" fill="#cfd0d0"/>
<path d="M2643.52 233.045C2643.87 243.285 2642.84 256.768 2640.45 273.493C2639.43 277.589 2636.87 279.637 2632.77 279.637H2481.73C2479.68 279.637 2478.66 280.49 2478.66 282.197C2479 287.317 2480.03 292.266 2481.73 297.045C2484.8 304.213 2490.09 310.016 2497.6 314.453C2505.11 318.891 2514.67 321.109 2526.28 321.109C2546.76 321.109 2563.99 314.112 2577.99 300.117C2579.35 298.41 2580.89 297.557 2582.6 297.557C2583.96 297.557 2585.16 298.24 2586.18 299.605L2618.95 344.661C2619.97 345.685 2620.48 346.88 2620.48 348.245C2620.48 349.61 2619.63 351.146 2617.92 352.853C2604.95 365.824 2589.42 375.722 2571.33 382.549C2553.58 389.376 2534.64 392.789 2514.5 392.789C2484.46 392.789 2459.72 386.133 2440.26 372.821C2420.8 359.168 2407.83 340.224 2401.35 315.989C2398.28 304.725 2396.74 292.608 2396.74 279.637C2396.74 272.469 2397.25 264.789 2398.28 256.597C2400.32 237.824 2405.27 219.221 2413.12 200.789C2424.73 175.53 2441.28 155.733 2462.79 141.397C2484.63 126.72 2509.04 119.381 2536 119.381C2557.85 119.381 2576.79 124.33 2592.84 134.229C2608.88 143.786 2621.17 157.269 2629.7 174.677C2638.57 191.744 2643.18 211.2 2643.52 233.045ZM2526.79 192.597C2510.06 192.597 2497.6 200.96 2489.41 217.685C2488.39 220.074 2487.19 223.658 2485.83 228.437C2485.15 230.144 2485.66 230.997 2487.36 230.997H2558.02C2559.73 230.997 2560.58 230.144 2560.58 228.437C2560.58 226.048 2560.24 222.805 2559.56 218.709C2558.19 210.176 2554.61 203.69 2548.8 199.253C2543.34 194.816 2536 192.597 2526.79 192.597Z" fill="#cfd0d0"/>
<path d="M2380.3 185.941C2380.3 187.648 2379.61 189.184 2378.25 190.549C2376.88 191.573 2375.35 192.085 2373.64 192.085H2328.58C2326.88 192.085 2326.02 192.939 2326.02 194.645L2314.25 287.829C2313.91 289.536 2313.74 291.925 2313.74 294.997C2313.74 309.675 2320.39 317.013 2333.7 317.013H2352.14C2353.84 317.013 2355.21 317.696 2356.23 319.061C2357.26 320.085 2357.6 321.451 2357.26 323.157L2350.09 382.549C2349.41 386.304 2347.19 388.523 2343.43 389.205C2327.05 389.888 2315.27 390.229 2308.1 390.229C2281.82 390.229 2262.19 386.475 2249.22 378.965C2236.59 371.456 2230.28 357.461 2230.28 336.981C2230.28 334.251 2230.62 329.472 2231.3 322.645L2246.66 194.645C2247.35 192.939 2246.66 192.085 2244.62 192.085H2216.46C2214.75 192.085 2213.38 191.573 2212.36 190.549C2211.34 189.184 2210.99 187.648 2211.34 185.941L2217.99 130.133C2218.33 128.427 2219.02 127.061 2220.04 126.037C2221.41 124.672 2222.94 123.989 2224.65 123.989H2252.81C2254.86 123.989 2255.88 123.136 2255.88 121.429L2263.56 59.4773C2263.9 57.7706 2264.58 56.4053 2265.61 55.3813C2266.97 54.016 2268.51 53.3333 2270.22 53.3333H2337.29C2338.99 53.3333 2340.36 54.016 2341.38 55.3813C2342.41 56.4053 2342.75 57.7706 2342.41 59.4773L2334.73 121.429C2334.73 123.136 2335.41 123.989 2336.78 123.989H2382.34C2384.05 123.989 2385.42 124.672 2386.44 126.037C2387.46 127.061 2387.81 128.427 2387.46 130.133L2380.3 185.941Z" fill="#cfd0d0"/>
<path d="M2171.47 120.405C2183.08 120.405 2192.12 122.624 2198.61 127.061C2201 129.109 2201.68 131.669 2200.66 134.741L2180.69 205.909C2179.66 210.005 2177.1 211.2 2173.01 209.493C2167.55 208.128 2161.91 207.445 2156.11 207.445C2150.65 207.445 2146.38 207.787 2143.31 208.469C2133.07 209.835 2123.86 213.931 2115.66 220.757C2107.81 227.584 2103.21 236.629 2101.84 247.893L2085.46 382.549C2085.11 384.256 2084.26 385.792 2082.9 387.157C2081.87 388.181 2080.51 388.693 2078.8 388.693H2008.14C2006.44 388.693 2005.07 388.181 2004.05 387.157C2003.02 385.792 2002.68 384.256 2003.02 382.549L2033.74 130.133C2034.09 128.427 2034.77 127.061 2035.79 126.037C2037.16 124.672 2038.69 123.989 2040.4 123.989H2111.06C2112.76 123.989 2114.13 124.672 2115.15 126.037C2116.18 127.061 2116.52 128.427 2116.18 130.133L2114.13 146.517C2114.13 147.541 2114.47 148.224 2115.15 148.565C2115.83 148.907 2116.35 148.565 2116.69 147.541C2132.05 129.451 2150.31 120.405 2171.47 120.405Z" fill="#cfd0d0"/>
<path d="M1909.98 130.133C1910.32 128.427 1911 127.061 1912.02 126.037C1913.39 124.672 1914.93 123.989 1916.63 123.989H1987.29C1988.99 123.989 1990.36 124.672 1991.38 126.037C1992.41 127.061 1992.75 128.427 1992.41 130.133L1961.18 382.549C1960.83 384.256 1959.98 385.792 1958.62 387.157C1957.59 388.181 1956.23 388.693 1954.52 388.693H1883.86C1882.16 388.693 1880.79 388.181 1879.77 387.157C1878.74 385.792 1878.4 384.256 1878.74 382.549L1881.3 363.093C1881.3 362.069 1880.96 361.387 1880.28 361.045C1879.94 360.704 1879.26 361.045 1878.23 362.069C1862.19 382.549 1841.2 392.789 1815.26 392.789C1793.07 392.789 1774.13 385.792 1758.42 371.797C1743.06 357.461 1733.34 338.176 1729.24 313.941C1727.87 306.773 1727.19 298.581 1727.19 289.365C1727.19 279.808 1728.05 268.544 1729.75 255.573C1732.48 230.315 1738.46 208.469 1747.67 190.037C1757.23 169.557 1771.22 152.832 1789.66 139.861C1808.09 126.549 1828.91 119.893 1852.12 119.893C1877.38 119.893 1894.96 128.597 1904.86 146.005C1905.54 147.029 1906.22 147.371 1906.9 147.029C1907.59 146.688 1907.93 146.005 1907.93 144.981L1909.98 130.133ZM1882.84 296.533C1888.64 286.976 1892.4 273.664 1894.1 256.597C1895.13 248.405 1895.64 241.408 1895.64 235.605C1895.64 227.755 1894.62 220.757 1892.57 214.613C1890.52 207.787 1886.94 202.496 1881.82 198.741C1877.04 194.645 1870.89 192.597 1863.38 192.597C1855.53 192.597 1848.54 194.645 1842.39 198.741C1836.25 202.837 1831.3 208.469 1827.54 215.637C1822.08 224.853 1818.16 238.507 1815.77 256.597C1815.09 261.376 1814.74 267.861 1814.74 276.053C1814.74 284.928 1815.6 291.925 1817.3 297.045C1819.35 303.872 1822.94 309.504 1828.06 313.941C1833.52 318.037 1840.17 320.085 1848.02 320.085C1863.04 320.085 1874.65 312.235 1882.84 296.533Z" fill="#cfd0d0"/>
<path d="M1711.3 185.941C1711.3 187.648 1710.61 189.184 1709.25 190.549C1707.88 191.573 1706.35 192.085 1704.64 192.085H1659.58C1657.88 192.085 1657.02 192.939 1657.02 194.645L1645.25 287.829C1644.91 289.536 1644.74 291.925 1644.74 294.997C1644.74 309.675 1651.39 317.013 1664.7 317.013H1683.14C1684.84 317.013 1686.21 317.696 1687.23 319.061C1688.26 320.085 1688.6 321.451 1688.26 323.157L1681.09 382.549C1680.41 386.304 1678.19 388.523 1674.43 389.205C1658.05 389.888 1646.27 390.229 1639.1 390.229C1612.82 390.229 1593.19 386.475 1580.22 378.965C1567.59 371.456 1561.28 357.461 1561.28 336.981C1561.28 334.251 1561.62 329.472 1562.3 322.645L1577.66 194.645C1578.35 192.939 1577.66 192.085 1575.62 192.085H1547.46C1545.75 192.085 1544.38 191.573 1543.36 190.549C1542.34 189.184 1541.99 187.648 1542.34 185.941L1548.99 130.133C1549.33 128.427 1550.02 127.061 1551.04 126.037C1552.41 124.672 1553.94 123.989 1555.65 123.989H1583.81C1585.86 123.989 1586.88 123.136 1586.88 121.429L1594.56 59.4773C1594.9 57.7706 1595.58 56.4053 1596.61 55.3813C1597.97 54.016 1599.51 53.3333 1601.22 53.3333H1668.29C1669.99 53.3333 1671.36 54.016 1672.38 55.3813C1673.41 56.4053 1673.75 57.7706 1673.41 59.4773L1665.73 121.429C1665.73 123.136 1666.41 123.989 1667.78 123.989H1713.34C1715.05 123.989 1716.42 124.672 1717.44 126.037C1718.46 127.061 1718.81 128.427 1718.46 130.133L1711.3 185.941Z" fill="#cfd0d0"/>
<path d="M1384.56 392.789C1351.45 392.789 1325.33 386.304 1306.22 373.333C1287.11 360.363 1277.55 343.125 1277.55 321.621C1277.55 317.867 1277.72 314.965 1278.06 312.917L1278.57 307.285C1278.91 305.579 1279.6 304.213 1280.62 303.189C1281.99 301.824 1283.52 301.141 1285.23 301.141H1352.3C1356.05 301.141 1357.93 303.189 1357.93 307.285C1356.91 313.771 1359.64 319.232 1366.12 323.669C1372.61 327.765 1381.14 329.813 1391.72 329.813C1401.62 329.813 1409.47 328.107 1415.28 324.693C1421.08 320.939 1423.98 316.16 1423.98 310.357C1423.98 305.579 1421.25 301.995 1415.79 299.605C1410.33 297.216 1401.45 294.827 1389.16 292.437C1369.03 288 1352.98 283.051 1341.04 277.589C1326.7 271.104 1315.27 263.253 1306.73 254.037C1298.2 244.48 1293.93 232.021 1293.93 216.661C1293.93 212.224 1294.1 208.811 1294.44 206.421C1297.86 179.797 1310.49 158.805 1332.33 143.445C1354.18 127.744 1381.48 119.893 1414.25 119.893C1445.31 119.893 1469.89 127.061 1487.98 141.397C1506.41 155.392 1515.63 174.165 1515.63 197.717C1515.63 202.155 1515.46 205.568 1515.12 207.957C1514.77 209.664 1513.92 211.2 1512.56 212.565C1511.19 213.589 1509.65 214.101 1507.95 214.101H1442.92C1441.22 214.101 1439.85 213.589 1438.83 212.565C1437.8 211.2 1437.46 209.664 1437.8 207.957C1438.49 201.472 1436.1 196.181 1430.64 192.085C1425.52 187.989 1417.84 185.941 1407.6 185.941C1397.7 185.941 1389.51 187.819 1383.02 191.573C1376.88 194.987 1373.8 199.765 1373.8 205.909C1373.8 211.371 1376.88 215.467 1383.02 218.197C1389.16 220.587 1399.06 222.976 1412.72 225.365C1430.81 229.12 1443.78 232.363 1451.63 235.093C1469.38 241.237 1483.2 249.429 1493.1 259.669C1503 269.568 1507.95 282.709 1507.95 299.093C1507.95 303.531 1507.78 306.944 1507.44 309.333C1504.02 335.957 1491.22 356.608 1469.04 371.285C1447.19 385.621 1419.03 392.789 1384.56 392.789Z" fill="#cfd0d0"/>
<path d="M1255.72 197.717C1257.42 208.64 1258.28 218.88 1258.28 228.437C1258.28 234.581 1257.59 244.139 1256.23 257.109C1252.81 281.685 1246.67 303.189 1237.8 321.621C1227.56 343.125 1213.22 360.363 1194.79 373.333C1176.7 386.304 1155.71 392.789 1131.81 392.789C1108.26 392.789 1091.19 384.768 1080.61 368.725C1079.93 367.701 1079.25 367.36 1078.56 367.701C1077.88 368.043 1077.54 368.725 1077.54 369.749L1064.23 476.245C1063.89 477.952 1063.03 479.317 1061.67 480.341C1060.64 481.707 1059.28 482.389 1057.57 482.389H986.916C985.209 482.389 983.844 481.707 982.82 480.341C981.796 479.317 981.455 477.952 981.796 476.245L1024.29 130.133C1024.63 128.427 1025.32 127.061 1026.34 126.037C1027.71 124.672 1029.24 123.989 1030.95 123.989H1101.6C1103.31 123.989 1104.68 124.672 1105.7 126.037C1106.72 127.061 1107.07 128.427 1106.72 130.133L1104.68 147.029C1104.68 149.077 1105.7 149.419 1107.75 148.053C1123.11 129.28 1143.25 119.893 1168.16 119.893C1190.69 119.893 1209.64 126.891 1225 140.885C1240.7 154.539 1250.94 173.483 1255.72 197.717ZM1154.85 301.653C1163.04 289.707 1168.16 274.347 1170.21 255.573C1170.89 251.819 1171.24 246.357 1171.24 239.189C1171.24 228.267 1169.7 219.221 1166.63 212.053C1161.85 199.083 1152.29 192.597 1137.96 192.597C1124.64 192.597 1113.72 199.083 1105.19 212.053C1098.02 224.341 1093.41 239.019 1091.36 256.085C1090.68 260.181 1090.34 265.984 1090.34 273.493C1090.34 284.416 1091.88 293.973 1094.95 302.165C1100.41 314.112 1109.45 320.085 1122.08 320.085C1136.08 320.085 1147 313.941 1154.85 301.653Z" fill="#cfd0d0"/>
<path d="M901.192 119.893C924.403 119.893 942.152 126.549 954.44 139.861C967.069 152.832 973.384 171.264 973.384 195.157C973.384 203.349 973.043 209.493 972.36 213.589L951.368 382.549C951.027 384.256 950.173 385.792 948.808 387.157C947.784 388.181 946.419 388.693 944.712 388.693H874.568C872.861 388.693 871.496 388.181 870.472 387.157C869.448 385.792 869.107 384.256 869.448 382.549L887.88 232.021C888.221 230.315 888.392 227.755 888.392 224.341C888.392 214.784 885.832 207.104 880.712 201.301C875.933 195.499 869.277 192.597 860.744 192.597C851.187 192.597 842.824 196.181 835.656 203.349C828.829 210.517 824.733 220.075 823.368 232.021L804.936 382.549C804.595 384.256 803.741 385.792 802.376 387.157C801.352 388.181 799.987 388.693 798.28 388.693H727.624C725.917 388.693 724.552 388.181 723.528 387.157C722.504 385.792 722.163 384.256 722.504 382.549L740.936 232.021C741.277 230.315 741.448 227.925 741.448 224.853C741.448 214.955 738.717 207.104 733.256 201.301C728.136 195.499 721.309 192.597 712.776 192.597C703.901 192.597 696.051 195.499 689.224 201.301C682.739 207.104 678.301 214.784 675.912 224.341L656.456 382.549C656.115 384.256 655.261 385.792 653.896 387.157C652.872 388.181 651.507 388.693 649.8 388.693H579.144C577.437 388.693 576.072 388.181 575.048 387.157C574.024 385.792 573.683 384.256 574.024 382.549L604.744 130.133C605.085 128.427 605.768 127.061 606.792 126.037C608.157 124.672 609.693 123.989 611.4 123.989H682.056C683.763 123.989 685.128 124.672 686.152 126.037C687.176 127.061 687.517 128.427 687.176 130.133L684.616 153.173C684.275 154.539 684.445 155.392 685.128 155.733C685.811 155.733 686.493 155.051 687.176 153.685C703.56 131.157 726.259 119.893 755.272 119.893C771.997 119.893 785.992 123.648 797.256 131.157C808.861 138.667 817.224 149.589 822.344 163.925C823.027 165.973 824.051 165.803 825.416 163.413C842.483 134.4 867.741 119.893 901.192 119.893Z" fill="#cfd0d0"/>
<path d="M480.724 130.133C481.065 128.427 481.748 127.061 482.772 126.037C484.137 124.672 485.673 123.989 487.38 123.989H558.036C559.743 123.989 561.108 124.672 562.132 126.037C563.156 127.061 563.497 128.427 563.156 130.133L532.436 382.549C532.095 384.256 531.241 385.792 529.876 387.157C528.852 388.181 527.487 388.693 525.78 388.693H455.124C453.417 388.693 452.052 388.181 451.028 387.157C450.004 385.792 449.663 384.256 450.004 382.549L452.052 364.629C452.393 363.605 452.223 362.923 451.54 362.581C450.857 362.24 450.175 362.581 449.492 363.605C433.791 383.061 411.604 392.789 382.932 392.789C360.404 392.789 342.484 386.304 329.172 373.333C315.86 360.021 309.204 341.248 309.204 317.013C309.204 309.504 309.545 303.701 310.228 299.605L330.708 130.133C331.049 128.427 331.903 127.061 333.268 126.037C334.633 124.672 336.169 123.989 337.876 123.989H408.02C409.727 123.989 411.092 124.672 412.116 126.037C413.14 127.061 413.481 128.427 413.14 130.133L394.708 280.149L394.196 286.805C394.196 297.045 396.756 305.067 401.876 310.869C406.996 316.672 414.164 319.573 423.38 319.573C432.596 319.573 440.617 316.672 447.444 310.869C454.271 305.067 459.049 297.387 461.78 287.829L480.724 130.133Z" fill="#cfd0d0"/>
<path d="M96.4922 243.17L96.54 242.773C96.8813 241.067 96.54 239.701 95.516 238.677C94.492 237.312 93.1267 236.629 91.42 236.629H20.764C19.0573 236.629 17.5213 237.312 16.156 238.677C15.132 239.701 14.4493 241.067 14.108 242.773L10.524 272.981C9.84133 281.173 9.5 286.976 9.5 290.389C9.5 321.451 19.74 346.368 40.22 365.141C61.0413 383.573 89.2013 392.789 124.7 392.789C149.959 392.789 172.999 387.84 193.82 377.941C214.983 367.701 232.049 353.536 245.02 335.445C258.332 317.355 266.353 296.533 269.084 272.981L298.268 36.4373C298.609 34.7306 298.268 33.3653 297.244 32.3413C296.22 30.9759 294.855 30.2932 293.148 30.2932H223.004C221.297 30.2932 219.761 30.9759 218.396 32.3413C217.372 33.3653 216.689 34.7306 216.348 36.4373L202.792 146.072H229.092C255.576 146.072 270.596 176.406 254.543 197.469L124.175 368.52C106.048 392.304 68.2615 374.922 74.527 345.681L96.4922 243.17Z" fill="#cfd0d0"/>
<path d="M185.077 31.4222L42.0388 198.649C37.5986 203.84 41.2873 211.849 48.1182 211.849H117.852C122.945 211.849 126.742 216.545 125.675 221.525L97.9944 350.709C97.0993 354.886 102.497 357.37 105.087 353.972L235.455 182.921C239.468 177.655 235.713 170.072 229.092 170.072H162.88C157.537 170.072 153.696 164.935 155.207 159.81L191.954 35.1533C193.174 31.015 187.882 28.1436 185.077 31.4222Z" fill="#FFC107"/>
</svg>
